<svg xmlns="http://www.w3.org/2000/svg" viewBox="0 0 512 512">
  <defs>
    <linearGradient id="bg" x1="64" y1="40" x2="448" y2="472" gradientUnits="userSpaceOnUse">
      <stop stop-color="#7dd3fc"/>
      <stop offset="0.5" stop-color="#8b5cf6"/>
      <stop offset="1" stop-color="#0f172a"/>
    </linearGradient>
    <linearGradient id="mark" x1="122" y1="112" x2="390" y2="400" gradientUnits="userSpaceOnUse">
      <stop stop-color="#ffffff"/>
      <stop offset="1" stop-color="#dff7ff"/>
    </linearGradient>
    <filter id="glow" x="-40%" y="-40%" width="180%" height="180%">
      <feGaussianBlur stdDeviation="12" result="blur"/>
      <feMerge>
        <feMergeNode in="blur"/>
        <feMergeNode in="SourceGraphic"/>
      </feMerge>
    </filter>
  </defs>
  <rect width="512" height="512" rx="116" fill="#020617"/>
  <rect x="24" y="24" width="464" height="464" rx="100" fill="url(#bg)" opacity="0.95"/>
  <path d="M94 256c0-89.5 72.5-162 162-162s162 72.5 162 162-72.5 162-162 162S94 345.5 94 256Z" fill="#020617" opacity="0.62"/>
  <path d="M256 74v364M74 256h364M127 127l258 258M385 127 127 385" stroke="#7dd3fc" stroke-width="14" stroke-linecap="round" opacity="0.28"/>
  <path d="M256 112 126 187v150l130 75 130-75V187L256 112Zm0 48 88 51v90l-88 51-88-51v-90l88-51Z" fill="url(#mark)" filter="url(#glow)"/>
  <circle cx="256" cy="256" r="52" fill="#7dd3fc" opacity="0.18"/>
  <text x="256" y="280" text-anchor="middle" font-family="Inter, Arial, sans-serif" font-size="68" font-weight="900" letter-spacing="-6" fill="#ffffff">YL</text>
</svg>
